{"title":"13/13/13.2013.DVDRiP.Xvid Acesn8s","uid":9041855,"size":1458056285,"categoryP":"video","categoryS":"movies","magnet":"?xt=urn:btih:8c0f99a61a66c54bb8af180645db0c036b067039&amp;dn=13%2F13%2F13.2013.DVDRiP.Xvid+Acesn8s&amp;tr=udp%3A%2F%2Ftracker.openbittorrent.com%3A80&amp;tr=udp%3A%2F%2Fopen.demonii.com%3A1337&amp;tr=udp%3A%2F%2Ftracker.coppersurfer.tk%3A6969&amp;tr=udp%3A%2F%2Fexodus.desync.com%3A6969","seeders":7,"leechers":1,"uploader":"Acesn8s","files":-1,"time":1381651103,"description":"General\nComplete name                            : 13-13-13.2013.DVDRiP.Xvid Acesn8s\nFormat                                   : AVI\nFormat/Info                              : Audio Video Interleave\nFile size                                : 1.36 GiB\nDuration                                 : 1h 26mn\nOverall bit rate                         : 2 257 Kbps\nWriting application                      : Nandub v1.0rc2\nWriting library                          : Nandub build 1853/release\n\n----------------------------------------------------------------------------------\n\nVideo\nID                                       : 0\nFormat                                   : MPEG-4 Visual\nFormat profile                           : Advanced Simple@L5\nFormat settings, BVOP                    : 2\nFormat settings, QPel                    : No\nFormat settings, GMC                     : No warppoints\nFormat settings, Matrix                  : Default (H.263)\nMuxing mode                              : Packed bitstream\nCodec ID                                 : XVID\nCodec ID/Hint                            : XviD\nDuration                                 : 1h 26mn\nBit rate                                 : 1 800 Kbps\nWidth                                    : 720 pixels\nHeight                                   : 400 pixels\nDisplay aspect ratio                     : 16:9\nFrame rate                               : 23.976 fps\nColor space                              : YUV\nChroma subsampling                       : 4:2:0\nBit depth                                : 8 bits\nScan type                                : Progressive\nCompression mode                         : Lossy\nBits/(Pixel*Frame)                       : 0.261\nStream size                              : 1.08 GiB (80%)\nWriting library                          : XviD 1.2.1 (UTC 2008-12-04)\n\n----------------------------------------------------------------------------------\n\nAudio\nID                                       : 1\nFormat                                   : AC-3\nFormat/Info                              : Audio Coding 3\nMode extension                           : CM (complete main)\nFormat settings, Endianness              : Big\nCodec ID                                 : 2000\nDuration                                 : 1h 26mn\nBit rate mode                            : Constant\nBit rate                                 : 448 Kbps\nChannel(s)                               : 6 channels\nChannel positions                        : Front: L C R, Side: L R, LFE\nSampling rate                            : 48.0 KHz\nBit depth                                : 16 bits\nCompression mode                         : Lossy\nStream size                              : 276 MiB (20%)\nAlignment                                : Split accross interleaves\nInterleave, duration                     : 42 ms (1.00 video frame)\nInterleave, preload duration             : 500 ms\n\n----------------------------------------------------------------------------------\n\nCast: Trae Ireland, Erin Coker, Jody Barton\n\nPlot: For millennia, calendars have added an extra day every four years. In doing so, they violated the ancient Mayan calendar. Now we are in the 13th month of the 13th year of the new millennium, and the few who survive will battle a world of demons.\n\nIMDb:\n &lt;a href=&quot;\nhttp://www.imdb.com/title/tt2991516/&quot; rel=&quot;nofollow&quot; target=&quot;_NEW&quot;&gt;\nhttp://www.imdb.com/title/tt2991516/&lt;/a&gt;\n\n----------------------------------------------------------------------------------\n\nScreens:\n &lt;a href=&quot;\nhttp://s23.postimg.org/mwn7zm3zv/Ace_00001.png&quot; rel=&quot;nofollow&quot; target=&quot;_NEW&quot;&gt;\nhttp://s23.postimg.org/mwn7zm3zv/Ace_00001.png&lt;/a&gt;\n &lt;a href=&quot;\nhttp://s23.postimg.org/lgbphh12z/Ace_00002.png&quot; rel=&quot;nofollow&quot; target=&quot;_NEW&quot;&gt;\nhttp://s23.postimg.org/lgbphh12z/Ace_00002.png&lt;/a&gt;\n &lt;a href=&quot;\nhttp://s23.postimg.org/541nrqmrf/Ace_00003.png&quot; rel=&quot;nofollow&quot; target=&quot;_NEW&quot;&gt;\nhttp://s23.postimg.org/541nrqmrf/Ace_00003.png&lt;/a&gt;\n &lt;a href=&quot;\nhttp://s23.postimg.org/d6zu327cr/Ace_00004.png&quot; rel=&quot;nofollow&quot; target=&quot;_NEW&quot;&gt;\nhttp://s23.postimg.org/d6zu327cr/Ace_00004.png&lt;/a&gt;\n &lt;a href=&quot;\nhttp://s23.postimg.org/5ogouffzv/Ace_00005.png&quot; rel=&quot;nofollow&quot; target=&quot;_NEW&quot;&gt;\nhttp://s23.postimg.org/5ogouffzv/Ace_00005.png&lt;/a&gt;\n\n----------------------------------------------------------------------------------","torrent":{"xt":"urn:btih:8c0f99a61a66c54bb8af180645db0c036b067039","amp;dn":"13%2F13%2F13.2013.DVDRiP.Xvid+Acesn8s","amp;tr":["udp%3A%2F%2Ftracker.openbittorrent.com%3A80","udp%3A%2F%2Fopen.demonii.com%3A1337","udp%3A%2F%2Ftracker.coppersurfer.tk%3A6969","udp%3A%2F%2Fexodus.desync.com%3A6969"],"infoHash":"8c0f99a61a66c54bb8af180645db0c036b067039","infoHashBuffer":{"type":"Buffer","data":[140,15,153,166,26,102,197,75,184,175,24,6,69,219,12,3,107,6,112,57]},"announce":[],"urlList":[]}}